# xmcd
#
# Track frame offsets:
#  150
#  12397
#  24112
#  37903
#  49384
#  59815
#  71849
#  83885
#  95073
#  107005
#  119305
#  131333
#  141713
#  154264
#  167058
#  179378
#  192476
#  205254
#  216669
#  229730
#
# Disc length: 3226 seconds
#
# Revision: 0
# Processed by: cddbd v1.5.1PL2 Copyright (c) Steve Scherf et al.
# Submitted via: Collectorz.com_Music_Collector 6.9
#
DISCID=310c9814
DTITLE=Bob Wills - Papas Jumping Disc 1
DYEAR=1979
DGENRE=Country
TTITLE0=01 - Silver Lake Blues
TTITLE1=02 - Little Cowboy Lullaby
TTITLE2=03 - Closed For Repairs
TTITLE3=04 - Dog House Blues
TTITLE4=05 - Bubbles In My Beer
TTITLE5=06 - Beneath Hawaiian Palms
TTITLE6=07 - Papas Jumpin
TTITLE7=08 - Don't Be Ashamed Of Your Age
TTITLE8=09 - Blackout Blues
TTITLE9=10 - Spanish Fandango
TTITLE10=11 - I Want To Be Near You
TTITLE11=12 - Saly Goodin
TTITLE12=13 - Shes Gone
TTITLE13=14 - I Had a Little Mule
TTITLE14=15 - Go Home With The Girls In The Morning
TTITLE15=16 - Still Water Runs The Deepest
TTITLE16=17 - Cotton Patch Blues
TTITLE17=18 - Nothing But The Best For My Baby
TTITLE18=19 - Blues For Dixie
TTITLE19=20 - Cross My Heart I Love You
EXTD=
EXTT0=
EXTT1=
EXTT2=
EXTT3=
EXTT4=
EXTT5=
EXTT6=
EXTT7=
EXTT8=
EXTT9=
EXTT10=
EXTT11=
EXTT12=
EXTT13=
EXTT14=
EXTT15=
EXTT16=
EXTT17=
EXTT18=
EXTT19=
PLAYORDER=
